<?xml version="1.0" encoding="UTF-8"?>
<svg id="Layer_2" data-name="Layer 2" xmlns="http://www.w3.org/2000/svg" viewBox="0 0 102.53 91.22">
  <defs>
    <style>
      .cls-1 {
        fill: #cfd1d2;
      }
    </style>
  </defs>
  <g id="Layer_1-2" data-name="Layer 1">
    <g>
      <rect class="cls-1" x="25.6" width="51.33" height="51.33"/>
      <g>
        <path class="cls-1" d="M1.26,86.47v.67c0,2.15,.98,2.95,2.25,2.95,1.58,0,2.19-1.01,2.19-2.92,0-2.09-.63-2.86-2.34-4.01-2.08-1.41-3.02-2.5-3.02-4.65,0-2,.82-3.82,3.26-3.82,2.63,0,3.16,1.95,3.16,3.8v.83h-1.23v-.77c0-1.62-.42-2.73-2-2.73-1.36,0-1.93,.92-1.93,2.57s.48,2.31,2.23,3.53c1.88,1.29,3.12,2.38,3.12,5.04s-1.07,4.27-3.55,4.27c-2.65,0-3.42-1.9-3.42-4.01v-.74H1.26Z"/>
        <path class="cls-1" d="M9.61,86.47v.67c0,2.15,.98,2.95,2.25,2.95,1.58,0,2.19-1.01,2.19-2.92,0-2.09-.63-2.86-2.34-4.01-2.08-1.41-3.02-2.5-3.02-4.65,0-2,.82-3.82,3.26-3.82,2.63,0,3.16,1.95,3.16,3.8v.83h-1.23v-.77c0-1.62-.42-2.73-2-2.73-1.36,0-1.93,.92-1.93,2.57s.48,2.31,2.23,3.53c1.88,1.29,3.12,2.38,3.12,5.04s-1.07,4.27-3.55,4.27c-2.65,0-3.42-1.9-3.42-4.01v-.74h1.26Z"/>
        <path class="cls-1" d="M24.14,86.18v.22c0,2.63-.67,4.82-3.48,4.82-2.52,0-3.38-1.84-3.38-5.01v-6.98c0-2.81,1.12-4.53,3.51-4.53,2.59,0,3.35,1.94,3.35,4.24v.7h-1.26v-.42c0-1.69-.29-3.4-2.12-3.4-1.56,0-2.22,1.14-2.22,3.62v6.79c0,1.81,.35,3.87,2.16,3.87,1.53,0,2.19-.9,2.19-3.68v-.24h1.26Z"/>
        <path class="cls-1" d="M26.4,74.95h1.23v16.01h-1.23v-16.01Zm0-6.32h1.23v3.08h-1.23v-3.08Z"/>
        <path class="cls-1" d="M30.68,90.96v-22.33h1.23v22.33h-1.23Z"/>
        <path class="cls-1" d="M41.36,86.18v.22c0,2.63-.67,4.82-3.48,4.82-2.52,0-3.38-1.84-3.38-5.01v-6.98c0-2.81,1.12-4.53,3.51-4.53,2.59,0,3.35,1.94,3.35,4.24v.7h-1.26v-.42c0-1.69-.29-3.4-2.12-3.4-1.56,0-2.22,1.14-2.22,3.62v6.79c0,1.81,.35,3.87,2.16,3.87,1.53,0,2.19-.9,2.19-3.68v-.24h1.26Z"/>
        <path class="cls-1" d="M50.58,68.63v18.54c0,1.34,0,2.87,.03,3.79h-1.16c-.03-.2-.07-1.09-.07-1.63-.32,.93-1.03,1.89-2.76,1.89-2.51,0-3.3-1.96-3.3-5v-6.87c0-2.88,1.18-4.65,3.53-4.65,1.68,0,2.24,.82,2.5,1.28v-7.34h1.23Zm-5.99,10.78v6.68c0,2.63,.67,3.93,2.16,3.93,2.06,0,2.6-2.06,2.6-4.67v-5.62c0-1.79-.19-3.85-2.51-3.85-1.56,0-2.26,1.37-2.26,3.52Z"/>
        <path class="cls-1" d="M53.63,79.76c0-3.17,0-3.94-.03-4.81h1.16c.03,.35,.07,.84,.07,1.75,.48-1.43,1.53-2.01,2.91-2.01,1.55,0,3.02,.81,3.02,3.66v12.6h-1.23v-12.34c0-1.66-.54-2.74-2-2.74-1.56,0-2.67,.73-2.67,4.66v10.41h-1.23v-11.21Z"/>
        <path class="cls-1" d="M63.8,79.53c0-2.61,0-3.75-.03-4.58h1.16c.06,.45,.06,1.08,.07,1.6,.39-1.09,1.19-1.85,2.66-1.85,1.16,0,2.08,.45,2.41,1.98,.42-1.08,1.25-1.98,2.82-1.98,1.39,0,2.86,.52,2.86,3.56v12.7h-1.23v-12.38c0-1.4-.19-2.7-1.81-2.7-1.9,0-2.32,1.83-2.32,3.72v11.36h-1.23v-12.19c0-2-.45-2.89-1.87-2.89-1.81,0-2.25,1.9-2.25,4.03v11.05h-1.23v-11.43Z"/>
        <path class="cls-1" d="M78.31,90.96v-4.08h1.23v4.08h-1.23Z"/>
        <path class="cls-1" d="M88.24,88.73c0,1.18,.03,1.91,.06,2.23h-1.19c-.1-.48-.13-1.12-.13-1.43-.48,1.4-1.6,1.69-2.59,1.69-2.21,0-3.08-1.87-3.08-4.39v-.29c0-3.28,1.81-4.81,4.63-4.81h1.04v-3.05c0-1.66-.35-2.8-1.9-2.8s-2.03,1.17-2.03,2.7v.6h-1.23v-.6c0-2.15,.87-3.89,3.29-3.89s3.13,1.79,3.13,3.92v10.12Zm-1.23-5.88h-1.04c-2.19,0-3.4,.98-3.4,3.63v.29c0,1.75,.48,3.27,2,3.27,1.9,0,2.44-1.64,2.44-4.29v-2.89Z"/>
        <path class="cls-1" d="M91.32,80.42c0-2.5,0-4.28-.03-5.47h1.2c.03,.54,.06,1.1,.06,2.41,.55-1.77,1.89-2.54,3.21-2.6v1.53c-2.14,.03-3.21,1.89-3.21,4.37v10.3h-1.23v-10.54Z"/>
        <path class="cls-1" d="M96.83,74.95h1.98v-4.03h1.2v4.03h2.52v1.13h-2.52v12.11c0,.89,.19,1.88,1.25,1.88,.32,0,.86-.03,1.15-.1v1.02c-.42,.13-1.03,.16-1.51,.16-1.08,0-2.07-.64-2.07-2.74v-12.34h-1.98v-1.13Z"/>
      </g>
    </g>
  </g>
</svg>