<?xml version="1.0" encoding="UTF-8"?>
<svg id="Layer_2" data-name="Layer 2" xmlns="http://www.w3.org/2000/svg" viewBox="0 0 45.2 45.2">
  <defs>
    <style>
      .cls-1 {
        fill: #cfd1d2;
      }
    </style>
  </defs>
  <g id="Layer_1-2" data-name="Layer 1">
    <g>
      <path class="cls-1" d="M23.88,11.2c-.49,.04-.93-.09-1.83-.49-.86-.39-.97-.42-1.65-.42-.51,0-.62,.02-.91,.09-.81,.23-1.9,.7-2.65,1.18-1.56,.98-3.01,2.46-4.24,4.34-.46,.7-.81,1.3-1.28,2.27-.76,1.48-1.05,2.23-1.14,2.78-.04,.18-.05,.35-.07,.35-.02,.02-.19,.11-.4,.19-.21,.09-.46,.19-.54,.25l-.16,.09,.11,.21c.28,.54,.95,1.6,1.39,2.16,.98,1.27,2.21,2.39,3.8,3.41,1.21,.79,3.99,2.23,5.96,3.06,2.57,1.09,5.15,2.07,7.82,2.94,2.44,.79,3.18,1.05,4.46,1.6,2.18,.91,4.1,1.93,5.98,3.18,.98,.65,1.85,1.32,2.79,2.18,.16,.14,.3,.26,.3,.25,.02-.02-.49-2.07-.7-2.79-.26-.93-.65-2.13-1.02-3.15-1.37-3.83-2.76-6.31-5.1-9.04-.7-.83-2.92-3.01-3.9-3.85-.47-.4-1.05-.93-1.3-1.18-.88-.88-1.48-1.81-2.02-3.13-.37-.88-.46-1.09-.56-1.21-.14-.16-.32-.18-.65-.05-.35,.12-1.49,.67-1.88,.91-1.25,.77-2.23,1.88-2.9,3.25-.37,.76-.53,1.23-.76,2.36-.05,.21-.07,.4-.07,.44,.02,.05,.72,.7,1.05,.97,.76,.62,1.79,1.12,2.85,1.39,.37,.09,1.95,.37,2.14,.37,.09,0-.09,.14-.47,.4-.47,.32-.67,.42-.83,.46-.4,.07-1.76-.39-2.85-.98-.91-.49-1.63-1-2.67-1.86-1.76-1.48-2.74-2.14-3.83-2.57-.83-.33-1.37-.46-2.46-.53-.72-.05-.88-.07-.88-.12,0-.19,.65-.33,1.58-.33,.69,0,.95,.04,1.78,.21,.33,.07,.6,.12,.62,.11,0,0,.19-.28,.42-.62,.44-.67,.74-1.04,1.3-1.67,.83-.91,2.13-2.14,2.87-2.65,.9-.63,2.34-1.37,3.64-1.85,1.85-.67,3.83-.74,4.96-.18,.49,.25,.88,.7,1.05,1.21,.04,.09,.07,.39,.11,.63,.04,.26,.07,.47,.09,.49,.05,.05,.49-.42,.65-.69,.39-.65,.6-1.48,.6-2.36,0-1.23-.32-1.95-1.3-2.9-.4-.39-.76-.65-1.28-1-.86-.54-1.2-.84-1.71-1.48-.39-.47-.97-1.05-1.35-1.34-1.12-.83-2.41-1.34-3.85-1.55-.3-.02-.7-.04-1.12-.04s-.83,0-1.07,.04c-.86,.09-1.92,.35-2.67,.63-.95,.37-2,.98-2.85,1.62-.49,.39-1.55,1.42-1.95,1.93-.67,.84-1.34,1.92-1.74,2.81-.19,.42-.74,1.85-.72,1.86,0,0,.23-.18,.51-.4,.26-.23,.63-.53,.81-.65,2.41-1.9,5.31-2.95,8.42-3.09,1.65-.07,4.25,.14,4.75,.39,.23,.11,.21,.18-.02,.44-.39,.4-.91,.69-1.41,.72Z"/>
      <path class="cls-1" d="M40.84,42.98c-1.72-1.74-3.81-3.22-6.57-4.62-1.85-.95-3.53-1.63-6.03-2.43-2.71-.88-4.32-1.44-6.56-2.34-2.79-1.11-4.68-2-7.12-3.34-1.2-.65-2.13-1.3-3.2-2.2-1.27-1.05-2.18-2.09-3.08-3.43-.49-.74-1.02-1.67-1.2-2.09-.44-1.09-.76-2.43-.86-3.57-.05-.6-.02-2.43,.05-3.15,.25-2.29,.83-4.13,1.76-5.64,.9-1.42,1.85-2.62,2.99-3.78,.76-.76,1.3-1.2,2.36-1.93,1.25-.86,1.9-1.2,4.22-2.16,.72-.3,.72-.32-.21-.11-2.07,.44-4.22,1.27-6.15,2.37-3.23,1.85-5.5,3.8-7.44,6.4-.79,1.07-1.2,1.67-1.71,2.64l-.27,.51V31.11l.04,.08c.86,1.51,1.51,2.51,2.43,3.64,1.02,1.28,2.25,2.51,3.36,3.37,1.58,1.23,3.5,2.43,5.26,3.23,1.03,.47,2.47,1.07,4.13,1.71h23.96s-.09-.1-.16-.16Z"/>
      <path class="cls-1" d="M43,2.44c-.76,2.51-1.83,3.37-2.14,3.52-.83,.4-1.83,.47-2.67,.21-.4-.12-1.37-.56-2.44-1.11-1.39-.7-1.67-.84-2.27-1.11-2.41-1.05-4.83-1.72-7.38-2.04-.67-.07-1.72-.18-1.95-.18q-.16,0,.16,.12c1.16,.42,2.97,1.34,3.8,1.92,1.42,1,2.88,2.25,5.12,4.39,1.95,1.86,3.18,3.37,4.24,5.24,.18,.3,.46,.79,.63,1.09,.91,1.58,1.51,2.78,1.95,3.88,.09,.21,.19,.44,.25,.49,.11,.12,.35,.69,.56,1.3,.14,.42,.53,1.95,.76,3.02,.14,.63,.35,.9,.95,1.2,.21,.11,.44,.21,.53,.23s.19,.04,.23,.05h.07V14.47l-.1-13.06"/>
      <path class="cls-1" d="M45.2,45.2H0V0H45.2V45.2ZM2.3,42.9H42.9V2.3H2.3V42.9Z"/>
    </g>
  </g>
</svg>