<?xml version="1.0" encoding="UTF-8"?>
<svg id="Layer_2" data-name="Layer 2" xmlns="http://www.w3.org/2000/svg" viewBox="0 0 39 39">
  <defs>
    <style>
      .cls-1 {
        fill: #cfd1d2;
        stroke: #18342f;
        stroke-linecap: round;
        stroke-linejoin: round;
        stroke-width: 2px;
      }
    </style>
  </defs>
  <g id="Layer_1-2" data-name="Layer 1">
    <g>
      <path class="cls-1" d="M36,38H3c-1.1,0-2-.9-2-2V3C1,1.9,1.9,1,3,1H36c1.1,0,2,.9,2,2V36c0,1.1-.9,2-2,2Z"/>
      <path class="cls-1" d="M5,23.45h5.96"/>
      <path class="cls-1" d="M5,11.52h5.96"/>
      <path class="cls-1" d="M5,17.49h3.89"/>
      <path class="cls-1" d="M5,11.52v11.93"/>
      <path class="cls-1" d="M34,20.5v4c0,1.66-1.34,3-3,3h0c-.79,0-1.55-.32-2.11-.88"/>
      <path class="cls-1" d="M34,15.55v4.95c0,1.66-1.34,3-3,3s-3-1.34-3-3v-4.95"/>
      <path class="cls-1" d="M19.65,22.78c.69,.56,1.57,.82,2.45,.72h.67c1.1,0,2-.9,2-2s-.9-2-2-2h-1.34c-1.1,0-2-.9-2-2s.9-2,2-2h.67c.88-.11,1.76,.13,2.46,.67"/>
      <path class="cls-1" d="M14.37,13.09v8.87c-.03,.82,.62,1.51,1.44,1.54,.02,0,.03,0,.05,0h.44"/>
      <path class="cls-1" d="M12.8,15.55h3.13"/>
    </g>
  </g>
</svg>