<?xml version="1.0" encoding="UTF-8"?>
<svg id="Layer_2" data-name="Layer 2" xmlns="http://www.w3.org/2000/svg" viewBox="0 0 18.01 18.04">
  <defs>
    <style>
      .cls-1 {
        fill: #cfd1d2;
      }
    </style>
  </defs>
  <g id="Layer_1-2" data-name="Layer 1">
    <g>
      <path class="cls-1" d="M17.95,5.32c-.01-.76-.15-1.51-.42-2.22-.47-1.21-1.42-2.16-2.63-2.63-.7-.26-1.44-.4-2.19-.42-.96-.04-1.27-.06-3.71-.06s-2.76,0-3.71,.06c-.75,.02-1.49,.16-2.18,.42C1.9,.94,.94,1.9,.47,3.11,.21,3.81,.07,4.55,.06,5.29c-.04,.96-.06,1.27-.06,3.71s0,2.75,.06,3.71c.02,.75,.16,1.49,.42,2.19,.47,1.21,1.42,2.16,2.63,2.63,.7,.27,1.43,.43,2.19,.45,.96,.04,1.27,.06,3.71,.06s2.76,0,3.71-.06c.75-.01,1.49-.16,2.19-.42,1.21-.47,2.16-1.42,2.63-2.63,.26-.7,.4-1.44,.42-2.19,.04-.96,.06-1.27,.06-3.71,0-2.44,0-2.75-.06-3.71ZM9,13.62c-2.55,0-4.62-2.07-4.62-4.62s2.07-4.62,4.62-4.62,4.62,2.07,4.62,4.62-2.07,4.62-4.62,4.62ZM13.8,5.28c-.6,0-1.08-.48-1.08-1.08s.48-1.08,1.08-1.08,1.08,.48,1.08,1.08-.48,1.08-1.08,1.08Z"/>
      <circle class="cls-1" cx="9" cy="9" r="3"/>
    </g>
  </g>
</svg>