<?xml version="1.0" encoding="UTF-8"?>
<svg id="Layer_2" data-name="Layer 2" xmlns="http://www.w3.org/2000/svg" viewBox="0 0 82.46 82.46">
  <defs>
    <style>
      .cls-1 {
        fill: #cfd1d2;
      }

      .cls-2 {
        fill: #6c857f;
      }
    </style>
  </defs>
  <g id="Layer_1-2" data-name="Layer 1">
    <g>
      <g>
        <rect class="cls-2" x="16.56" y="1.65" width="49.35" height="49.35"/>
        <g>
          <path class="cls-1" d="m67.56,52.66H14.9V0h52.66v52.66Zm-49.33-3.33h46V3.33H18.23v46Z"/>
          <g>
            <path class="cls-1" d="m42.66,13.74c-.55.04-1.04-.1-2.04-.55-.96-.43-1.08-.47-1.84-.47-.57,0-.69.02-1.02.1-.9.25-2.12.78-2.96,1.31-1.74,1.1-3.35,2.74-4.72,4.84-.51.78-.9,1.45-1.43,2.53-.84,1.65-1.18,2.49-1.27,3.1-.04.2-.06.39-.08.39-.02.02-.22.12-.45.22-.24.1-.51.22-.61.27l-.18.1.12.24c.31.61,1.06,1.78,1.55,2.41,1.1,1.41,2.47,2.67,4.23,3.8,1.35.88,4.45,2.49,6.64,3.41,2.86,1.22,5.74,2.31,8.72,3.27,2.72.88,3.55,1.18,4.98,1.78,2.43,1.02,4.57,2.16,6.66,3.55,1.1.73,2.06,1.47,3.12,2.43.18.16.33.29.33.27.02-.02-.55-2.31-.78-3.12-.29-1.04-.73-2.37-1.14-3.51-1.53-4.27-3.08-7.04-5.68-10.07-.78-.92-3.25-3.35-4.35-4.29-.53-.45-1.18-1.04-1.45-1.31-.98-.98-1.65-2.02-2.25-3.49-.41-.98-.51-1.22-.63-1.35-.16-.18-.35-.2-.73-.06-.39.14-1.67.74-2.1,1.02-1.39.86-2.49,2.1-3.23,3.63-.41.84-.59,1.37-.84,2.63-.06.24-.08.45-.08.49.02.06.8.78,1.18,1.08.84.69,2,1.25,3.17,1.55.41.1,2.18.41,2.39.41.1,0-.1.16-.53.45-.53.35-.74.47-.92.51-.45.08-1.96-.43-3.17-1.1-1.02-.55-1.82-1.12-2.98-2.08-1.96-1.65-3.06-2.39-4.27-2.86-.92-.37-1.53-.51-2.74-.59-.8-.06-.98-.08-.98-.14,0-.22.73-.37,1.76-.37.76,0,1.06.04,1.98.24.37.08.67.14.69.12,0,0,.22-.31.47-.69.49-.74.82-1.16,1.45-1.86.92-1.02,2.37-2.39,3.19-2.96,1-.71,2.61-1.53,4.06-2.06,2.06-.74,4.27-.82,5.53-.2.55.27.98.78,1.18,1.35.04.1.08.43.12.71.04.29.08.53.1.55.06.06.55-.47.73-.76.43-.73.67-1.65.67-2.63,0-1.37-.35-2.18-1.45-3.23-.45-.43-.84-.73-1.43-1.12-.96-.61-1.33-.94-1.9-1.65-.43-.53-1.08-1.18-1.51-1.49-1.25-.92-2.68-1.49-4.29-1.72-.33-.02-.78-.04-1.25-.04s-.92,0-1.2.04c-.96.1-2.14.39-2.98.71-1.06.41-2.23,1.1-3.17,1.8-.55.43-1.72,1.59-2.18,2.16-.74.94-1.49,2.14-1.94,3.14-.22.47-.82,2.06-.8,2.08,0,0,.25-.2.57-.45.29-.25.71-.59.9-.73,2.68-2.12,5.92-3.29,9.39-3.45,1.84-.08,4.74.16,5.29.43.25.12.24.2-.02.49-.43.45-1.02.76-1.57.8Z"/>
            <path class="cls-1" d="m61.57,49.17c-1.92-1.94-4.25-3.59-7.33-5.15-2.06-1.06-3.94-1.82-6.72-2.7-3.02-.98-4.82-1.61-7.31-2.61-3.12-1.23-5.21-2.23-7.94-3.72-1.33-.73-2.37-1.45-3.57-2.45-1.41-1.18-2.43-2.33-3.43-3.82-.55-.82-1.14-1.86-1.33-2.33-.49-1.22-.84-2.7-.96-3.98-.06-.67-.02-2.7.06-3.51.27-2.55.92-4.61,1.96-6.29,1-1.59,2.06-2.92,3.33-4.21.84-.84,1.45-1.33,2.63-2.16,1.39-.96,2.12-1.33,4.7-2.41.8-.33.8-.35-.24-.12-2.31.49-4.7,1.41-6.86,2.65-3.61,2.06-6.13,4.23-8.29,7.13-.88,1.2-1.33,1.86-1.9,2.94l-.3.57v18.94l.05.09c.96,1.69,1.69,2.8,2.7,4.06,1.14,1.43,2.51,2.8,3.74,3.76,1.76,1.37,3.9,2.7,5.86,3.61,1.14.53,2.75,1.19,4.6,1.91h26.72s-.1-.11-.18-.18Z"/>
            <path class="cls-1" d="m63.97,3.97c-.85,2.8-2.04,3.75-2.38,3.92-.92.45-2.04.53-2.98.24-.45-.14-1.53-.63-2.72-1.23-1.55-.78-1.86-.94-2.53-1.23-2.68-1.18-5.39-1.92-8.23-2.27-.74-.08-1.92-.2-2.18-.2q-.18,0,.18.14c1.29.47,3.31,1.49,4.23,2.14,1.59,1.12,3.21,2.51,5.7,4.9,2.18,2.08,3.55,3.76,4.72,5.84.2.33.51.88.71,1.22,1.02,1.76,1.69,3.1,2.18,4.33.1.24.22.49.27.55.12.14.39.76.63,1.45.16.47.59,2.18.84,3.37.16.71.39,1,1.06,1.33.24.12.49.24.59.25s.22.04.25.06h.08v-11.39l-.11-14.56"/>
          </g>
        </g>
      </g>
      <g>
        <path class="cls-1" d="m1.4,78.2v.6c0,1.72.76,2.43,1.84,2.43,1.29,0,1.78-.82,1.78-2.37,0-1.68-.51-2.35-2.04-3.38-1.85-1.24-2.69-2.21-2.69-4.12s.81-3.44,3.01-3.44c2.38,0,2.94,1.67,2.94,3.46v.7h-1.35v-.71c0-1.35-.36-2.23-1.63-2.23-1.11,0-1.58.76-1.58,2.09s.39,1.89,1.89,2.91c1.79,1.21,2.85,2.18,2.85,4.51,0,2.45-1.01,3.81-3.27,3.81-2.47,0-3.16-1.72-3.16-3.61v-.64h1.4Z"/>
        <path class="cls-1" d="m14.18,80.11c0,1.01.02,1.79.06,2.12h-1.3c-.08-.39-.12-.96-.13-1.22-.43,1.17-1.38,1.45-2.29,1.45-1.98,0-2.76-1.7-2.76-3.9v-.25c0-2.99,1.72-4.26,4.21-4.26h.82v-2.54c0-1.4-.28-2.34-1.56-2.34s-1.66.97-1.66,2.23v.48h-1.36v-.47c0-1.92.77-3.49,3.06-3.49s2.91,1.56,2.91,3.5v8.69Zm-1.36-4.89h-.84c-1.82,0-2.85.8-2.85,3.03v.25c0,1.45.41,2.68,1.67,2.68,1.55,0,2.02-1.31,2.02-3.57v-2.39Z"/>
        <path class="cls-1" d="m16.8,72.39c0-2.8,0-3.51-.03-4.25h1.3c.03.31.06.76.06,1.5.42-1.18,1.32-1.72,2.57-1.72,1.42,0,2.69.77,2.69,3.3v11.01h-1.37v-10.73c0-1.43-.47-2.29-1.67-2.29-1.31,0-2.19.63-2.19,3.82v9.19h-1.37v-9.84Z"/>
        <path class="cls-1" d="m24.53,68.14h1.7v-3.52h1.35v3.52h2.14v1.24h-2.14v10.26c0,.77.15,1.58,1.07,1.58.28,0,.73-.03.97-.08v1.11c-.39.13-.95.17-1.4.17-1.09,0-1.99-.56-1.99-2.51v-10.52h-1.7v-1.24Z"/>
        <path class="cls-1" d="m31.11,68.14h1.37v14.09h-1.37v-14.09Zm0-5.45h1.37v2.76h-1.37v-2.76Z"/>
        <path class="cls-1" d="m35.09,82.23v-19.54h1.37v19.54h-1.37Z"/>
        <path class="cls-1" d="m39.06,82.23v-19.54h1.37v19.54h-1.37Z"/>
        <path class="cls-1" d="m48.73,80.11c0,1.01.02,1.79.06,2.12h-1.3c-.08-.39-.12-.96-.13-1.22-.43,1.17-1.38,1.45-2.29,1.45-1.98,0-2.76-1.7-2.76-3.9v-.25c0-2.99,1.72-4.26,4.21-4.26h.82v-2.54c0-1.4-.28-2.34-1.56-2.34s-1.66.97-1.66,2.23v.48h-1.36v-.47c0-1.92.77-3.49,3.06-3.49s2.91,1.56,2.91,3.5v8.69Zm-1.36-4.89h-.84c-1.82,0-2.85.8-2.85,3.03v.25c0,1.45.41,2.68,1.67,2.68,1.55,0,2.02-1.31,2.02-3.57v-2.39Z"/>
        <path class="cls-1" d="m51.36,72.39c0-2.8,0-3.51-.03-4.25h1.3c.03.31.06.76.06,1.5.42-1.18,1.32-1.72,2.57-1.72,1.42,0,2.69.77,2.69,3.3v11.01h-1.37v-10.73c0-1.43-.47-2.29-1.67-2.29-1.31,0-2.19.63-2.19,3.82v9.19h-1.37v-9.84Z"/>
        <path class="cls-1" d="m60.16,82.23v-3.66h1.37v3.66h-1.37Z"/>
        <path class="cls-1" d="m69.51,80.11c0,1.01.02,1.79.06,2.12h-1.3c-.08-.39-.12-.96-.13-1.22-.43,1.17-1.38,1.45-2.29,1.45-1.98,0-2.76-1.7-2.76-3.9v-.25c0-2.99,1.72-4.26,4.21-4.26h.82v-2.54c0-1.4-.28-2.34-1.56-2.34s-1.66.97-1.66,2.23v.48h-1.36v-.47c0-1.92.77-3.49,3.06-3.49s2.91,1.56,2.91,3.5v8.69Zm-1.36-4.89h-.84c-1.82,0-2.85.8-2.85,3.03v.25c0,1.45.41,2.68,1.67,2.68,1.55,0,2.02-1.31,2.02-3.57v-2.39Z"/>
        <path class="cls-1" d="m72.13,72.95c0-2.22,0-3.69-.03-4.81h1.32c.03.44.06,1.06.06,2.14.49-1.62,1.69-2.27,2.87-2.32v1.7c-1.84.02-2.85,1.45-2.85,3.75v8.81h-1.37v-9.28Z"/>
        <path class="cls-1" d="m77.28,68.14h1.7v-3.52h1.35v3.52h2.14v1.24h-2.14v10.26c0,.77.15,1.58,1.07,1.58.28,0,.73-.03.97-.08v1.11c-.39.13-.95.17-1.4.17-1.09,0-1.99-.56-1.99-2.51v-10.52h-1.7v-1.24Z"/>
      </g>
    </g>
  </g>
</svg>